<?xml version="1.0" encoding="utf-8"?>
<!-- Generator: Adobe Illustrator 16.0.0, SVG Export Plug-In . SVG Version: 6.00 Build 0)  -->
<!DOCTYPE svg PUBLIC "-//W3C//DTD SVG 1.1//EN" "http://www.w3.org/Graphics/SVG/1.1/DTD/svg11.dtd">
<svg version="1.1" id="Layer_1" xmlns="http://www.w3.org/2000/svg" xmlns:xlink="http://www.w3.org/1999/xlink" x="0px" y="0px"
	 width="300px" height="300px" viewBox="0 0 300 300" enable-background="new 0 0 300 300" xml:space="preserve">
<g>
	<path fill="none" stroke="#FDDF4D" stroke-width="9.5" stroke-linecap="round" stroke-miterlimit="10" d="M189.602,249.316
		c-12.064,5.729-25.563,8.934-39.811,8.934"/>
	<path fill="none" stroke="#FDDF4D" stroke-width="9.5" stroke-linecap="round" stroke-miterlimit="10" d="M223.379,104.437
		c2.111,2.922,4.078,5.96,5.877,9.105"/>
	<path fill="none" stroke="#FDDF4D" stroke-width="9.5" stroke-linecap="round" stroke-miterlimit="10" d="M86.068,77.054
		c14.875-8.972,33.009-14.47,54.402-15.016c28.646-0.728,54.566,11.797,73.137,30.796"/>
	<path fill="none" stroke="#FDDF4D" stroke-width="9.5" stroke-linecap="round" stroke-miterlimit="10" d="M104.815,48.636
		c11.247-3.626,23.188-5.582,35.553-5.582c25.587,0,49.307,8.202,68.778,22.087"/>
	<path fill="none" stroke="#FDDF4D" stroke-width="9.5" stroke-linecap="round" stroke-miterlimit="10" d="M93.676,175.026"/>
	<path fill="none" stroke="#FDDF4D" stroke-width="9.5" stroke-linecap="round" stroke-miterlimit="10" d="M173,173.564"/>
	<path fill="none" stroke="#FDDF4D" stroke-width="9.5" stroke-linecap="round" stroke-miterlimit="10" d="M173,165.077"/>
	<path fill="none" stroke="#FDDF4D" stroke-width="9.5" stroke-linecap="round" stroke-miterlimit="10" d="M140.565,173.564"/>
	<path fill="none" stroke="#FDDF4D" stroke-width="9.5" stroke-linecap="round" stroke-miterlimit="10" d="M190.01,173.426"/>
	<path fill="none" stroke="#FDDF4D" stroke-width="9.5" stroke-linecap="round" stroke-miterlimit="10" d="M190.01,165.023"/>
	<path fill="none" stroke="#FDDF4D" stroke-width="9.5" stroke-linecap="round" stroke-miterlimit="10" d="M155.884,171.307
		l-0.004-4.712v2.021c0.294-11.301-7.338-17.508-16.374-17.508c-9.04,0-16.365,9.956-16.365,18.99l0,0l0.004,3.909"/>
	<path fill="none" stroke="#FDDF4D" stroke-width="9.5" stroke-linecap="round" stroke-miterlimit="10" d="M71.237,163.063
		c-1.253,12.609-4.111,78.688,64.822,95.005"/>
	<path fill="none" stroke="#FDDF4D" stroke-width="9.5" stroke-linecap="round" stroke-miterlimit="10" d="M190.196,119.105
		c-12.105-13.931-29.951-22.74-49.868-22.742c-29.061,0-53.447,19.915-63.933,45.896"/>
	<path fill="none" stroke="#FDDF4D" stroke-width="9.5" stroke-linecap="round" stroke-miterlimit="10" d="M140.368,170.089
		c-0.401,11.222,6.203,19.435,15.157,19.435c8.958,0,18.438-10.017,18.035-23.242c-0.396-11.619-4.407-23.643-20.839-31.257
		c-8.979-4.159-19.235-2.804-24.046,0"/>
	<path fill="none" stroke="#FDDF4D" stroke-width="9.5" stroke-linecap="round" stroke-miterlimit="10" d="M178.903,220.398
		c-6.821,3.101-14.372,4.384-22.204,4.822c-27.205,1.515-52.053-23.163-52.053-52.102l0,0c0-8.121,1.526-21.726,11.452-32.084"/>
	<path fill="none" stroke="#FDDF4D" stroke-width="9.5" stroke-linecap="round" stroke-miterlimit="10" d="M192.327,208.484
		c9.277-10.22,16.943-28.055,16.167-42.404l0,0c0-9.342-1.844-19.71-6.273-31.579"/>
	<path fill="none" stroke="#FDDF4D" stroke-width="9.5" stroke-linecap="round" stroke-miterlimit="10" d="M226.328,168.504
		c0.045-1.021,0.065-2.048,0.065-3.084v-1.077c0-47.471-38.589-85.962-86.06-85.962c-19.776,0-37.848,6.849-52.479,17.91
		c-2.105,1.59-5.915,4.704-10.294,9.373"/>
	<path fill="none" stroke="#FDDF4D" stroke-width="9.5" stroke-linecap="round" stroke-miterlimit="10" d="M138.148,114.245
		c-31.196,2.424-49.014,31.274-49.943,57.348l0,0c-0.631,18.08,7.66,67.979,66.813,69.412c0,0,30.045-0.374,48.504-20.933
		c6.264-6.976,11.721-14.795,15.731-23.365"/>
	<path fill="none" stroke="#FDDF4D" stroke-width="9.5" stroke-linecap="round" stroke-miterlimit="10" d="M189.712,152.043
		c-4.609-17.256-17.015-31.727-34.044-36.924"/>
	<path fill="none" stroke="#FDDF4D" stroke-width="9.5" stroke-linecap="round" stroke-miterlimit="10" d="M123.203,174.008
		c0,18.568,15.057,33.62,33.615,33.62c18.567,0,34.808-19.449,34.808-38.017l0,0"/>
</g>
</svg>
