<?xml version="1.0" encoding="utf-8"?>
<!-- Generator: Adobe Illustrator 18.1.1, SVG Export Plug-In . SVG Version: 6.00 Build 0)  -->
<svg version="1.1" id="Layer_1" xmlns="http://www.w3.org/2000/svg" xmlns:xlink="http://www.w3.org/1999/xlink" x="0px" y="0px"
	 viewBox="0 0 103 177.6" enable-background="new 0 0 103 177.6" xml:space="preserve">
<path fill-rule="evenodd" clip-rule="evenodd" fill="#ED1F23" d="M95.6,0H7.4C3.7,0,0,3.7,0,7.5v162.7c0,3.7,3.7,7.5,7.4,7.5h88.2
	c3.7,0,7.4-3.7,7.4-7.5V7.5C103,3.7,99.3,0,95.6,0z M66,168.7c0,1.3-1.3,2.6-2.6,2.6H39.6c-1.3,0-2.6-1.3-2.6-2.6v-1.1
	c0-1.3,1.3-2.6,2.6-2.6h23.7c1.3,0,2.6,1.3,2.6,2.6V168.7z M94.1,157.3c0,1.3-1.3,2.7-2.5,2.7H11.7c-1.3,0-2.5-1.3-2.5-2.7V11.6
	c0-1.3,1.3-2.7,2.5-2.7h79.9c1.3,0,2.5,1.3,2.5,2.7V157.3z"/>
</svg>
