<?xml version="1.0" encoding="utf-8"?>
<!-- Generator: Adobe Illustrator 16.0.3, SVG Export Plug-In . SVG Version: 6.00 Build 0)  -->
<!DOCTYPE svg PUBLIC "-//W3C//DTD SVG 1.1//EN" "http://www.w3.org/Graphics/SVG/1.1/DTD/svg11.dtd">
<svg version="1.1" xmlns="http://www.w3.org/2000/svg" xmlns:xlink="http://www.w3.org/1999/xlink" x="0px" y="0px" width="300px"
	 height="300px" viewBox="0 0 300 300" enable-background="new 0 0 300 300" xml:space="preserve">
<g id="Layer_1">
	<path fill="none" stroke="#000000" stroke-width="6" stroke-miterlimit="10" d="M235.667,210.667c0,0,2.667-4.917,5.083-12.417
		c0.808-2.5,1.589-5.287,2.241-8.274c0.752-6.244,1.254-12.489,1.576-18.739c0.161-3.125,0.278-6.251,0.355-9.379
		C244,135,248,106,234.885,81.254c-1.579-3.154-3.411-6.406-5.526-9.67C216.67,52,193.828,32,153.219,30.333"/>
	<path fill="none" stroke="#000000" stroke-width="6" stroke-miterlimit="10" d="M210,84c0,0,14.5,17.75,14.5,44v47.75
		c0,0-6.5,56.25-63.75,54.5c0,0-0.568,0.001-1.595-0.047C148,230,137,228,127.592,221.195c-1.451-0.839-2.892-1.745-4.308-2.729
		c-11.333-7.88-21.125-21.027-22.284-42.966v-50c0,0,3.75-40,44-48c0,0,37.5-9.75,55,32c0,0,4.25,7.75,5,19.25l-0.25,43"/>
	<path fill="none" stroke="#000000" stroke-width="6" stroke-miterlimit="10" d="M103.75,230.29c0,0,0.992,0.862,2.844,2.254
		c1.389,1.044,3.229,2.438,5.536,3.923c0.769,0.495,1.59,1,2.464,1.505C127,246,141,251,154.766,251.737
		c1.532,0.181,3.066,0.324,4.6,0.429c15.337,1.045,30.659-1.871,44.684-9.576c2.461-1.423,4.928-3.012,7.396-4.776
		c4.94-3.533,9.888-7.771,14.805-12.813"/>
	<path fill="none" stroke="#000000" stroke-width="6" stroke-miterlimit="10" d="M213.5,260.75c0,0-28.969,17.297-65.391,12.973
		c-2.429-0.281-4.893-0.66-7.392-1.125C118,268,95.755,256.815,80.894,235.856c-2.252-3.177-4.456-6.715-6.517-10.656
		C68.192,213.378,63.25,197.95,61.75,178"/>
	<path fill="none" stroke="#000000" stroke-width="6" stroke-miterlimit="10" d="M200.75,187.5c0,0-18.75,35.75-63.125,14.25
		c0,0-16.375-11.25-16.125-30l-0.003-45c0,0,6.44-28.25,31.722-28.5c0,0,22.031,0.25,30.281,22.25c0,0,1.25,1.5,1.75,25.25"/>
	<path fill="none" stroke="#000000" stroke-width="6" stroke-miterlimit="10" d="M184.75,161.5c0,0,2.5,24-19.75,27
		c0,0-9.648,0.947-16.834-6.568c-0.359-0.375-0.712-0.772-1.057-1.19c-5.109-5.741-5.722-10.407-5.605-21.499
		c0.005-0.52-0.002-1.054-0.004-1.598c0-4.893,0-10.692,0-15.607c0-1.213,0-2.373,0-3.452c0.313-2.866-0.352-6.284,0.513-9.291
		c0.173-0.601,0.407-1.186,0.723-1.747c2.448-4.911,8.123-6.701,13.221-5.412c0.851,0.215,1.684,0.514,2.47,0.892
		c0.763,0.329,1.425,0.714,1.999,1.149C164,127,165,131,164.989,136.065c0.009,0.603,0.011,1.306,0.011,2.089
		c0,8.611,0,26.846,0,26.846"/>
	<path fill="none" stroke="#000000" stroke-width="6" stroke-miterlimit="10" d="M199.07,71c0,0-54.07-45-100.07,10
		c0,0-16.667,18.667-17,48.333c0,0,0,49.333,0,53.333c0,0,1.141,18.355,12.333,36"/>
	<path fill="none" stroke="#000000" stroke-width="6" stroke-miterlimit="10" d="M137.625,31.667c0,0-42.292,6.333-61.958,43.333
		c0,0-13.833,17-13.917,56.667v31"/>
</g>
</svg>

